<svg width="45" height="45" viewBox="0 0 45 45" fill="none" xmlns="http://www.w3.org/2000/svg">
<path d="M38.2781 7.95C39.3469 7.95 40.1531 8.8875 39.7219 10.6313L34.4906 35.2875C34.125 37.0406 33.0656 37.4625 31.6031 36.6469L19.125 27.4313C19.0766 27.3965 19.0372 27.3508 19.01 27.2978C18.9828 27.2448 18.9686 27.1861 18.9686 27.1266C18.9686 27.067 18.9828 27.0083 19.01 26.9553C19.0372 26.9023 19.0766 26.8566 19.125 26.8219L33.5344 13.8094C34.1906 13.2281 33.3938 12.9469 32.5313 13.4719L14.4469 24.8813C14.392 24.917 14.3298 24.9398 14.2648 24.948C14.1998 24.9561 14.1338 24.9493 14.0719 24.9281L6.39375 22.5C4.6875 22.0031 4.6875 20.8313 6.77812 19.9969L37.5 8.14688C37.7436 8.02999 38.0082 7.96305 38.2781 7.95V7.95Z" stroke="#EC1654" stroke-width="0.9375" stroke-linecap="round" stroke-linejoin="round"/>
</svg>
