<svg width="45" height="45" viewBox="0 0 45 45" fill="none" xmlns="http://www.w3.org/2000/svg">
<path d="M34.6125 29.3344C31.0125 31.1578 27.5287 32.9812 22.5 32.9812C17.4713 32.9812 13.9875 31.1578 10.3875 29.3344M16.4906 32.0372C15.6407 33.2772 14.7302 34.4745 13.7625 35.625C6.84375 35.4281 4.21875 30.9375 4.21875 30.9375C4.31709 24.5748 5.85898 18.3175 8.72813 12.6375C11.2502 10.6645 14.3232 9.52436 17.5219 9.375L18.4594 11.5406C19.7984 11.3547 21.1482 11.2576 22.5 11.25C23.8578 11.2545 25.2139 11.3484 26.5594 11.5312L27.4969 9.36562C30.6986 9.52307 33.772 10.6731 36.2906 12.6562C39.1505 18.3321 40.6859 24.5826 40.7812 30.9375C40.7812 30.9375 38.1562 35.4281 31.2375 35.625C30.2845 34.48 29.3896 33.2879 28.5562 32.0531L16.4906 32.0372Z" stroke="#EC1654" stroke-width="0.9375" stroke-linecap="round" stroke-linejoin="round"/>
<path d="M16.7316 27.7312C18.4661 27.7312 19.8722 26.3251 19.8722 24.5906C19.8722 22.8561 18.4661 21.45 16.7316 21.45C14.997 21.45 13.5909 22.8561 13.5909 24.5906C13.5909 26.3251 14.997 27.7312 16.7316 27.7312Z" stroke="#EC1654" stroke-width="0.9375" stroke-linecap="round" stroke-linejoin="round"/>
<path d="M28.2684 27.7312C30.003 27.7312 31.4091 26.3251 31.4091 24.5906C31.4091 22.8561 30.003 21.45 28.2684 21.45C26.5339 21.45 25.1278 22.8561 25.1278 24.5906C25.1278 26.3251 26.5339 27.7312 28.2684 27.7312Z" stroke="#EC1654" stroke-width="0.9375" stroke-linecap="round" stroke-linejoin="round"/>
</svg>
