<svg width="23" height="29" viewBox="0 0 23 29" fill="none" xmlns="http://www.w3.org/2000/svg">
<path fill-rule="evenodd" clip-rule="evenodd" d="M13.2807 0.0725523C13.6055 0.1747 13.8893 0.377802 14.0907 0.652321C14.2921 0.926841 14.4007 1.25846 14.4007 1.59895V9.59895H20.8007C21.0934 9.59882 21.3805 9.67897 21.6308 9.83067C21.881 9.98237 22.0849 10.1998 22.2202 10.4593C22.3555 10.7189 22.417 11.0105 22.3981 11.3026C22.3791 11.5946 22.2804 11.8759 22.1127 12.1158L10.9127 28.1158C10.7178 28.395 10.4388 28.6048 10.1165 28.7146C9.79407 28.8243 9.44507 28.8284 9.12023 28.7261C8.79538 28.6239 8.51165 28.4206 8.3103 28.1459C8.10895 27.8713 8.0005 27.5395 8.00071 27.199V19.199H1.60071C1.30804 19.1991 1.02094 19.1189 0.77066 18.9672C0.520376 18.8155 0.316496 18.5981 0.181207 18.3386C0.0459187 18.079 -0.0155952 17.7874 0.00335974 17.4953C0.0223147 17.2033 0.121013 16.922 0.288712 16.6822L11.4887 0.682152C11.6839 0.403411 11.9629 0.194172 12.2852 0.0848341C12.6075 -0.024504 12.9562 -0.0282458 13.2807 0.0741523V0.0725523Z" fill="#EC1654"/>
</svg>
