<svg width="71" height="60" viewBox="0 0 71 60" fill="none" xmlns="http://www.w3.org/2000/svg">
<path d="M42.1389 10.65C41.6424 11.5392 41.1999 12.4575 40.8139 13.4C37.0208 12.8001 33.157 12.8001 29.3639 13.4C28.9779 12.4575 28.5354 11.5392 28.0389 10.65C24.4659 11.2605 20.9924 12.3538 17.7139 13.9C11.8513 22.3607 9.1925 32.6324 10.2139 42.875C14.0345 45.7471 18.3225 47.9377 22.8889 49.35C23.9287 47.9765 24.8567 46.5218 25.6639 45C24.1741 44.4507 22.7421 43.7557 21.3889 42.925C21.7601 42.678 22.1111 42.4022 22.4389 42.1C26.3851 44.0008 30.7088 44.9879 35.0889 44.9879C39.469 44.9879 43.7928 44.0008 47.7389 42.1C48.0889 42.4 48.4389 42.675 48.7889 42.925C47.4283 43.7491 45.9978 44.4518 44.5139 45.025C45.2877 46.5813 46.1908 48.0699 47.2139 49.475C51.7746 48.0675 56.0552 45.8765 59.8639 43C60.9098 32.7555 58.2489 22.4755 52.3639 14.025C49.1222 12.4468 45.6831 11.3117 42.1389 10.65V10.65ZM26.7889 37.025C25.5379 36.9352 24.3703 36.3642 23.5312 35.4319C22.6921 34.4996 22.2469 33.2786 22.2889 32.025C22.2406 30.7698 22.6836 29.5452 23.5239 28.6115C24.3642 27.6778 25.5356 27.1087 26.7889 27.025C28.0423 27.1087 29.2136 27.6778 30.0539 28.6115C30.8942 29.5452 31.3373 30.7698 31.2889 32.025C31.3373 33.2802 30.8942 34.5048 30.0539 35.4385C29.2136 36.3721 28.0423 36.9413 26.7889 37.025V37.025ZM43.3889 37.025C42.1379 36.9352 40.9703 36.3642 40.1312 35.4319C39.2922 34.4996 38.8469 33.2786 38.8889 32.025C38.8406 30.7698 39.2836 29.5452 40.1239 28.6115C40.9642 27.6778 42.1356 27.1087 43.3889 27.025C44.6446 27.1024 45.8197 27.6697 46.6613 28.6049C47.5029 29.54 47.9437 30.7681 47.8889 32.025C47.9437 33.2819 47.5029 34.51 46.6613 35.4451C45.8197 36.3802 44.6446 36.9476 43.3889 37.025V37.025Z" fill="#EC1654"/>
</svg>
