<svg width="70" height="60" viewBox="0 0 70 60" fill="none" xmlns="http://www.w3.org/2000/svg">
<path d="M54.0825 19.9925C54.115 20.43 54.115 20.865 54.115 21.3C54.115 34.6125 43.9825 49.9525 25.465 49.9525C19.76 49.9525 14.46 48.3 10 45.43C10.81 45.5225 11.59 45.555 12.4325 45.555C16.965 45.5659 21.3691 44.0503 24.935 41.2525C22.8336 41.2145 20.7964 40.5211 19.1081 39.2693C17.4198 38.0175 16.1645 36.2697 15.5175 34.27C16.14 34.3625 16.765 34.425 17.42 34.425C18.3225 34.425 19.23 34.3 20.0725 34.0825C17.7919 33.622 15.7412 32.3859 14.269 30.5842C12.7969 28.7825 11.9942 26.5266 11.9975 24.2V24.075C13.34 24.8225 14.8975 25.29 16.5475 25.3525C15.1652 24.434 14.0318 23.1875 13.2483 21.7245C12.4649 20.2614 12.0558 18.6271 12.0575 16.9675C12.0575 15.0975 12.555 13.3825 13.4275 11.8875C15.9578 15 19.1138 17.5464 22.6908 19.3616C26.2679 21.1769 30.1864 22.2205 34.1925 22.425C34.0375 21.675 33.9425 20.8975 33.9425 20.1175C33.9418 18.7949 34.2019 17.4851 34.7077 16.2631C35.2135 15.041 35.9553 13.9307 36.8905 12.9955C37.8257 12.0602 38.9361 11.3185 40.1581 10.8127C41.3801 10.3068 42.6899 10.0468 44.0125 10.0475C46.9125 10.0475 49.53 11.2625 51.37 13.2275C53.6244 12.7915 55.7864 11.9685 57.76 10.795C57.0085 13.122 55.4344 15.0952 53.3325 16.345C55.332 16.1169 57.2861 15.5911 59.13 14.785C57.7528 16.7927 56.0463 18.5533 54.0825 19.9925V19.9925Z" fill="#EC1654"/>
</svg>
