<svg width="45" height="45" viewBox="0 0 45 45" fill="none" xmlns="http://www.w3.org/2000/svg">
<path d="M43.125 5.64375C43.125 5.64375 39.3413 7.87875 37.2375 8.5125C36.1083 7.21408 34.6075 6.2938 32.9382 5.87611C31.2689 5.45843 29.5116 5.56349 27.9039 6.1771C26.2962 6.79071 24.9158 7.88325 23.9493 9.30697C22.9829 10.7307 22.4769 12.4169 22.5 14.1375V16.0125C19.2049 16.0979 15.9399 15.3672 12.9956 13.8852C10.0514 12.4033 7.51934 10.2162 5.625 7.51875C5.625 7.51875 -1.875 24.3937 15 31.8937C11.1385 34.5149 6.53842 35.8292 1.875 35.6437C18.75 45.0187 39.375 35.6438 39.375 14.0813C39.375 13.56 39.3225 13.0388 39.225 12.525C41.1375 10.6388 43.125 5.64375 43.125 5.64375Z" stroke="#EC1654" stroke-width="1.5" stroke-linecap="round" stroke-linejoin="round"/>
</svg>
