<svg width="250" height="75" viewBox="0 0 250 75" fill="none" xmlns="http://www.w3.org/2000/svg">
<g clip-path="url(#clip0_2_201)">
<path d="M241.662 30.2925L197.338 47.385C194.313 48.6 194.33 50.2875 196.783 51.04L208.162 54.59L234.492 37.9775C235.737 37.22 236.875 37.6275 235.94 38.4575L214.607 57.71H214.602L214.607 57.7125L213.822 69.4425C214.972 69.4425 215.48 68.915 216.125 68.2925L221.652 62.9175L233.15 71.41C235.27 72.5775 236.792 71.9775 237.32 69.4475L244.867 33.8775C245.64 30.78 243.685 29.3775 241.662 30.2925V30.2925Z" fill="#EC1654"/>
<path d="M132.05 31.65C131.553 32.5392 131.111 33.4576 130.725 34.4C126.932 33.8001 123.068 33.8001 119.275 34.4C118.889 33.4576 118.447 32.5392 117.95 31.65C114.377 32.2605 110.904 33.3538 107.625 34.9C101.762 43.3607 99.1036 53.6324 100.125 63.875C103.946 66.7472 108.234 68.9377 112.8 70.35C113.84 68.9765 114.768 67.5218 115.575 66C114.085 65.4507 112.653 64.7557 111.3 63.925C111.671 63.678 112.022 63.4022 112.35 63.1C116.296 65.0008 120.62 65.9879 125 65.9879C129.38 65.9879 133.704 65.0008 137.65 63.1C138 63.4 138.35 63.675 138.7 63.925C137.339 64.7491 135.909 65.4518 134.425 66.025C135.199 67.5813 136.102 69.0699 137.125 70.475C141.686 69.0676 145.966 66.8765 149.775 64C150.821 53.7555 148.16 43.4755 142.275 35.025C139.033 33.4468 135.594 32.3117 132.05 31.65V31.65ZM116.7 58.025C115.449 57.9352 114.281 57.3642 113.442 56.4319C112.603 55.4996 112.158 54.2786 112.2 53.025C112.152 51.7698 112.595 50.5452 113.435 49.6115C114.275 48.6778 115.447 48.1087 116.7 48.025C117.953 48.1087 119.125 48.6778 119.965 49.6115C120.805 50.5452 121.248 51.7698 121.2 53.025C121.248 54.2802 120.805 55.5048 119.965 56.4385C119.125 57.3722 117.953 57.9413 116.7 58.025V58.025ZM133.3 58.025C132.049 57.9352 130.881 57.3642 130.042 56.4319C129.203 55.4996 128.758 54.2786 128.8 53.025C128.752 51.7698 129.195 50.5452 130.035 49.6115C130.875 48.6778 132.047 48.1087 133.3 48.025C134.556 48.1024 135.731 48.6698 136.572 49.6049C137.414 50.54 137.855 51.7681 137.8 53.025C137.855 54.2819 137.414 55.51 136.572 56.4451C135.731 57.3802 134.556 57.9476 133.3 58.025V58.025Z" fill="#EC1654"/>
<path d="M49.0825 40.9925C49.115 41.43 49.115 41.865 49.115 42.3C49.115 55.6125 38.9825 70.9525 20.465 70.9525C14.76 70.9525 9.46 69.3 5 66.43C5.81 66.5225 6.59 66.555 7.4325 66.555C11.965 66.566 16.3691 65.0504 19.935 62.2525C17.8336 62.2145 15.7964 61.5211 14.1081 60.2693C12.4198 59.0175 11.1645 57.2697 10.5175 55.27C11.14 55.3625 11.765 55.425 12.42 55.425C13.3225 55.425 14.23 55.3 15.0725 55.0825C12.7919 54.622 10.7412 53.3859 9.26905 51.5842C7.79691 49.7826 6.99423 47.5266 6.9975 45.2V45.075C8.34 45.8225 9.8975 46.29 11.5475 46.3525C10.1652 45.434 9.0318 44.1876 8.24835 42.7245C7.4649 41.2614 7.05578 39.6271 7.0575 37.9675C7.0575 36.0975 7.555 34.3825 8.4275 32.8875C10.9578 36.0001 14.1138 38.5464 17.6908 40.3616C21.2679 42.1769 25.1864 43.2205 29.1925 43.425C29.0375 42.675 28.9425 41.8975 28.9425 41.1175C28.9418 39.7949 29.2019 38.4851 29.7077 37.2631C30.2135 36.0411 30.9553 34.9307 31.8905 33.9955C32.8257 33.0603 33.9361 32.3185 35.1581 31.8127C36.3801 31.3069 37.6899 31.0468 39.0125 31.0475C41.9125 31.0475 44.53 32.2625 46.37 34.2275C48.6244 33.7915 50.7864 32.9686 52.76 31.795C52.0085 34.122 50.4344 36.0953 48.3325 37.345C50.332 37.1169 52.2861 36.5911 54.13 35.785C52.7528 37.7927 51.0463 39.5534 49.0825 40.9925V40.9925Z" fill="#EC1654"/>
</g>
<defs>
<clipPath id="clip0_2_201">
<rect width="250" height="75" fill="white"/>
</clipPath>
</defs>
</svg>
