<svg width="852" height="641" viewBox="0 0 852 641" fill="none" xmlns="http://www.w3.org/2000/svg">
<path d="M84.3125 2C84.8648 2 85.3125 1.55228 85.3125 1C85.3125 0.447715 84.8648 0 84.3125 0V2ZM90.9375 0C90.3852 0 89.9375 0.447715 89.9375 1C89.9375 1.55228 90.3852 2 90.9375 2V0ZM97.5625 2C98.1148 2 98.5625 1.55228 98.5625 1C98.5625 0.447715 98.1148 0 97.5625 0V2ZM104.187 0C103.635 0 103.187 0.447715 103.187 1C103.187 1.55228 103.635 2 104.187 2V0ZM110.812 2C111.365 2 111.812 1.55228 111.812 1C111.812 0.447715 111.365 0 110.812 0V2ZM117.438 0C116.885 0 116.438 0.447715 116.438 1C116.438 1.55228 116.885 2 117.438 2V0ZM124.062 2C124.615 2 125.062 1.55228 125.062 1C125.062 0.447715 124.615 0 124.062 0V2ZM130.688 0C130.135 0 129.688 0.447715 129.688 1C129.688 1.55228 130.135 2 130.688 2V0ZM137.313 2C137.865 2 138.313 1.55228 138.313 1C138.313 0.447715 137.865 0 137.313 0V2ZM143.937 0C143.385 0 142.937 0.447715 142.937 1C142.937 1.55228 143.385 2 143.937 2V0ZM150.563 2C151.115 2 151.563 1.55228 151.563 1C151.563 0.447715 151.115 0 150.563 0V2ZM157.188 0C156.635 0 156.188 0.447715 156.188 1C156.188 1.55228 156.635 2 157.188 2V0ZM163.812 2C164.365 2 164.812 1.55228 164.812 1C164.812 0.447715 164.365 0 163.812 0V2ZM170.437 0C169.885 0 169.437 0.447715 169.437 1C169.437 1.55228 169.885 2 170.437 2V0ZM177.062 2C177.615 2 178.062 1.55228 178.062 1C178.062 0.447715 177.615 0 177.062 0V2ZM183.688 0C183.135 0 182.688 0.447715 182.688 1C182.688 1.55228 183.135 2 183.688 2V0ZM190.312 2C190.865 2 191.312 1.55228 191.312 1C191.312 0.447715 190.865 0 190.312 0V2ZM196.938 0C196.385 0 195.938 0.447715 195.938 1C195.938 1.55228 196.385 2 196.938 2V0ZM203.563 2C204.115 2 204.563 1.55228 204.563 1C204.563 0.447715 204.115 0 203.563 0V2ZM210.187 0C209.635 0 209.187 0.447715 209.187 1C209.187 1.55228 209.635 2 210.187 2V0ZM217.042 2C217.594 2 218.042 1.55228 218.042 1C218.042 0.447715 217.594 0 217.042 0V2ZM224.125 0C223.573 0 223.125 0.447715 223.125 1C223.125 1.55228 223.573 2 224.125 2V0ZM231.208 2C231.761 2 232.208 1.55228 232.208 1C232.208 0.447715 231.761 0 231.208 0V2ZM238.292 0C237.739 0 237.292 0.447715 237.292 1C237.292 1.55228 237.739 2 238.292 2V0ZM245.375 2C245.927 2 246.375 1.55228 246.375 1C246.375 0.447715 245.927 0 245.375 0V2ZM252.458 0C251.906 0 251.458 0.447715 251.458 1C251.458 1.55228 251.906 2 252.458 2V0ZM259.542 2C260.094 2 260.542 1.55228 260.542 1C260.542 0.447715 260.094 0 259.542 0V2ZM266.625 0C266.073 0 265.625 0.447715 265.625 1C265.625 1.55228 266.073 2 266.625 2V0ZM273.708 2C274.261 2 274.708 1.55228 274.708 1C274.708 0.447715 274.261 0 273.708 0V2ZM280.792 0C280.239 0 279.792 0.447715 279.792 1C279.792 1.55228 280.239 2 280.792 2V0ZM287.875 2C288.427 2 288.875 1.55228 288.875 1C288.875 0.447715 288.427 0 287.875 0V2ZM294.958 0C294.406 0 293.958 0.447715 293.958 1C293.958 1.55228 294.406 2 294.958 2V0ZM302.042 2C302.594 2 303.042 1.55228 303.042 1C303.042 0.447715 302.594 0 302.042 0V2ZM309.125 0C308.573 0 308.125 0.447715 308.125 1C308.125 1.55228 308.573 2 309.125 2V0ZM316.208 2C316.761 2 317.208 1.55228 317.208 1C317.208 0.447715 316.761 0 316.208 0V2ZM323.292 0C322.739 0 322.292 0.447715 322.292 1C322.292 1.55228 322.739 2 323.292 2V0ZM330.375 2C330.927 2 331.375 1.55228 331.375 1C331.375 0.447715 330.927 0 330.375 0V2ZM337.458 0C336.906 0 336.458 0.447715 336.458 1C336.458 1.55228 336.906 2 337.458 2V0ZM344.542 2C345.094 2 345.542 1.55228 345.542 1C345.542 0.447715 345.094 0 344.542 0V2ZM351.625 0C351.073 0 350.625 0.447715 350.625 1C350.625 1.55228 351.073 2 351.625 2V0ZM358.708 2C359.261 2 359.708 1.55228 359.708 1C359.708 0.447715 359.261 0 358.708 0V2ZM365.792 0C365.239 0 364.792 0.447715 364.792 1C364.792 1.55228 365.239 2 365.792 2V0ZM372.875 2C373.427 2 373.875 1.55228 373.875 1C373.875 0.447715 373.427 0 372.875 0V2ZM379.958 0C379.406 0 378.958 0.447715 378.958 1C378.958 1.55228 379.406 2 379.958 2V0ZM387.042 2C387.594 2 388.042 1.55228 388.042 1C388.042 0.447715 387.594 0 387.042 0V2ZM394.125 0C393.573 0 393.125 0.447715 393.125 1C393.125 1.55228 393.573 2 394.125 2V0ZM401.208 2C401.761 2 402.208 1.55228 402.208 1C402.208 0.447715 401.761 0 401.208 0V2ZM408.292 0C407.739 0 407.292 0.447715 407.292 1C407.292 1.55228 407.739 2 408.292 2V0ZM415.375 2C415.927 2 416.375 1.55228 416.375 1C416.375 0.447715 415.927 0 415.375 0V2ZM422.458 0C421.906 0 421.458 0.447715 421.458 1C421.458 1.55228 421.906 2 422.458 2V0ZM429.491 2C430.044 2 430.491 1.55228 430.491 1C430.491 0.447715 430.044 0 429.491 0V2ZM436.474 0C435.922 0 435.474 0.447715 435.474 1C435.474 1.55228 435.922 2 436.474 2V0ZM443.457 2C444.009 2 444.457 1.55228 444.457 1C444.457 0.447715 444.009 0 443.457 0V2ZM450.44 0C449.887 0 449.44 0.447715 449.44 1C449.44 1.55228 449.887 2 450.44 2V0ZM457.422 2C457.975 2 458.422 1.55228 458.422 1C458.422 0.447715 457.975 0 457.422 0V2ZM464.405 0C463.853 0 463.405 0.447715 463.405 1C463.405 1.55228 463.853 2 464.405 2V0ZM471.388 2C471.94 2 472.388 1.55228 472.388 1C472.388 0.447715 471.94 0 471.388 0V2ZM478.371 0C477.818 0 477.371 0.447715 477.371 1C477.371 1.55228 477.818 2 478.371 2V0ZM485.353 2C485.906 2 486.353 1.55228 486.353 1C486.353 0.447715 485.906 0 485.353 0V2ZM492.336 0C491.784 0 491.336 0.447715 491.336 1C491.336 1.55228 491.784 2 492.336 2V0ZM499.319 2C499.871 2 500.319 1.55228 500.319 1C500.319 0.447715 499.871 0 499.319 0V2ZM506.302 0C505.749 0 505.302 0.447715 505.302 1C505.302 1.55228 505.749 2 506.302 2V0ZM513.284 2C513.837 2 514.284 1.55228 514.284 1C514.284 0.447715 513.837 0 513.284 0V2ZM520.267 0C519.715 0 519.267 0.447715 519.267 1C519.267 1.55228 519.715 2 520.267 2V0ZM527.25 2C527.802 2 528.25 1.55228 528.25 1C528.25 0.447715 527.802 0 527.25 0V2ZM534.233 0C533.68 0 533.233 0.447715 533.233 1C533.233 1.55228 533.68 2 534.233 2V0ZM541.216 2C541.768 2 542.216 1.55228 542.216 1C542.216 0.447715 541.768 0 541.216 0V2ZM548.198 0C547.646 0 547.198 0.447715 547.198 1C547.198 1.55228 547.646 2 548.198 2V0ZM555.181 2C555.733 2 556.181 1.55228 556.181 1C556.181 0.447715 555.733 0 555.181 0V2ZM562.164 0C561.612 0 561.164 0.447715 561.164 1C561.164 1.55228 561.612 2 562.164 2V0ZM569.147 2C569.699 2 570.147 1.55228 570.147 1C570.147 0.447715 569.699 0 569.147 0V2ZM576.129 0C575.577 0 575.129 0.447715 575.129 1C575.129 1.55228 575.577 2 576.129 2V0ZM583.112 2C583.664 2 584.112 1.55228 584.112 1C584.112 0.447715 583.664 0 583.112 0V2ZM590.095 0C589.543 0 589.095 0.447715 589.095 1C589.095 1.55228 589.543 2 590.095 2V0ZM597.078 2C597.63 2 598.078 1.55228 598.078 1C598.078 0.447715 597.63 0 597.078 0V2ZM604.06 0C603.508 0 603.06 0.447715 603.06 1C603.06 1.55228 603.508 2 604.06 2V0ZM611.043 2C611.595 2 612.043 1.55228 612.043 1C612.043 0.447715 611.595 0 611.043 0V2ZM618.026 0C617.474 0 617.026 0.447715 617.026 1C617.026 1.55228 617.474 2 618.026 2V0ZM625.009 2C625.561 2 626.009 1.55228 626.009 1C626.009 0.447715 625.561 0 625.009 0V2ZM631.991 0C631.439 0 630.991 0.447715 630.991 1C630.991 1.55228 631.439 2 631.991 2V0ZM638.974 2C639.526 2 639.974 1.55228 639.974 1C639.974 0.447715 639.526 0 638.974 0V2ZM645.957 0C645.405 0 644.957 0.447715 644.957 1C644.957 1.55228 645.405 2 645.957 2V0ZM652.94 2C653.492 2 653.94 1.55228 653.94 1C653.94 0.447715 653.492 0 652.94 0V2ZM659.922 0C659.37 0 658.922 0.447715 658.922 1C658.922 1.55228 659.37 2 659.922 2V0ZM666.905 2C667.457 2 667.905 1.55228 667.905 1C667.905 0.447715 667.457 0 666.905 0V2ZM673.888 0C673.336 0 672.888 0.447715 672.888 1C672.888 1.55228 673.336 2 673.888 2V0ZM680.871 2C681.423 2 681.871 1.55228 681.871 1C681.871 0.447715 681.423 0 680.871 0V2ZM687.853 0C687.301 0 686.853 0.447715 686.853 1C686.853 1.55228 687.301 2 687.853 2V0ZM694.836 2C695.388 2 695.836 1.55228 695.836 1C695.836 0.447715 695.388 0 694.836 0V2ZM701.819 0C701.267 0 700.819 0.447715 700.819 1C700.819 1.55228 701.267 2 701.819 2V0ZM708.802 2C709.354 2 709.802 1.55228 709.802 1C709.802 0.447715 709.354 0 708.802 0V2ZM715.784 0C715.232 0 714.784 0.447715 714.784 1C714.784 1.55228 715.232 2 715.784 2V0ZM722.767 2C723.319 2 723.767 1.55228 723.767 1C723.767 0.447715 723.319 0 722.767 0V2ZM729.75 0C729.198 0 728.75 0.447715 728.75 1C728.75 1.55228 729.198 2 729.75 2V0ZM736.733 2C737.285 2 737.733 1.55228 737.733 1C737.733 0.447715 737.285 0 736.733 0V2ZM743.715 0C743.163 0 742.715 0.447715 742.715 1C742.715 1.55228 743.163 2 743.715 2V0ZM750.698 2C751.251 2 751.698 1.55228 751.698 1C751.698 0.447715 751.251 0 750.698 0V2ZM757.681 0C757.129 0 756.681 0.447715 756.681 1C756.681 1.55228 757.129 2 757.681 2V0ZM764.664 2C765.216 2 765.664 1.55228 765.664 1C765.664 0.447715 765.216 0 764.664 0V2ZM771.647 0C771.094 0 770.647 0.447715 770.647 1C770.647 1.55228 771.094 2 771.647 2V0ZM778.629 2C779.182 2 779.629 1.55228 779.629 1C779.629 0.447715 779.182 0 778.629 0V2ZM785.612 0C785.06 0 784.612 0.447715 784.612 1C784.612 1.55228 785.06 2 785.612 2V0ZM792.595 2C793.147 2 793.595 1.55228 793.595 1C793.595 0.447715 793.147 0 792.595 0V2ZM799.578 0C799.025 0 798.578 0.447715 798.578 1C798.578 1.55228 799.025 2 799.578 2V0ZM806.56 2C807.113 2 807.56 1.55228 807.56 1C807.56 0.447715 807.113 0 806.56 0V2ZM813.543 0C812.991 0 812.543 0.447715 812.543 1C812.543 1.55228 812.991 2 813.543 2V0ZM820.526 2C821.078 2 821.526 1.55228 821.526 1C821.526 0.447715 821.078 0 820.526 0V2ZM827.509 0C826.956 0 826.509 0.447715 826.509 1C826.509 1.55228 826.956 2 827.509 2V0ZM834.709 2.36167C835.251 2.46885 835.777 2.11653 835.884 1.57475C835.991 1.03297 835.639 0.506874 835.097 0.399693L834.709 2.36167ZM842.669 3.53772C842.21 3.23048 841.589 3.35344 841.281 3.81237C840.974 4.2713 841.097 4.89241 841.556 5.19966L842.669 3.53772ZM846.8 10.444C847.108 10.9029 847.729 11.0259 848.188 10.7187C848.647 10.4114 848.77 9.7903 848.462 9.33137L846.8 10.444ZM851.6 16.9027C851.493 16.3609 850.967 16.0086 850.425 16.1158C849.883 16.223 849.531 16.749 849.638 17.2908L851.6 16.9027ZM850 24.4866C850 25.0389 850.448 25.4866 851 25.4866C851.552 25.4866 852 25.0389 852 24.4866H850ZM852 31.4598C852 30.9075 851.552 30.4598 851 30.4598C850.448 30.4598 850 30.9075 850 31.4598H852ZM850 38.433C850 38.9853 850.448 39.433 851 39.433C851.552 39.433 852 38.9853 852 38.433H850ZM852 45.4062C852 44.854 851.552 44.4062 851 44.4062C850.448 44.4062 850 44.854 850 45.4062H852ZM850 52.3795C850 52.9317 850.448 53.3795 851 53.3795C851.552 53.3795 852 52.9317 852 52.3795H850ZM852 59.3527C852 58.8004 851.552 58.3527 851 58.3527C850.448 58.3527 850 58.8004 850 59.3527H852ZM850 66.3259C850 66.8782 850.448 67.3259 851 67.3259C851.552 67.3259 852 66.8782 852 66.3259H850ZM852 73.2991C852 72.7468 851.552 72.2991 851 72.2991C850.448 72.2991 850 72.7468 850 73.2991H852ZM850 80.2723C850 80.8246 850.448 81.2723 851 81.2723C851.552 81.2723 852 80.8246 852 80.2723H850ZM852 87.2455C852 86.6932 851.552 86.2455 851 86.2455C850.448 86.2455 850 86.6932 850 87.2455H852ZM850 94.2187C850 94.771 850.448 95.2187 851 95.2187C851.552 95.2187 852 94.771 852 94.2187H850ZM852 101.192C852 100.64 851.552 100.192 851 100.192C850.448 100.192 850 100.64 850 101.192H852ZM850 108.165C850 108.717 850.448 109.165 851 109.165C851.552 109.165 852 108.717 852 108.165H850ZM852 115.138C852 114.586 851.552 114.138 851 114.138C850.448 114.138 850 114.586 850 115.138H852ZM850 122.112C850 122.664 850.448 123.112 851 123.112C851.552 123.112 852 122.664 852 122.112H850ZM852 129.085C852 128.533 851.552 128.085 851 128.085C850.448 128.085 850 128.533 850 129.085H852ZM850 136.058C850 136.61 850.448 137.058 851 137.058C851.552 137.058 852 136.61 852 136.058H850ZM852 143.031C852 142.479 851.552 142.031 851 142.031C850.448 142.031 850 142.479 850 143.031H852ZM850 150.004C850 150.557 850.448 151.004 851 151.004C851.552 151.004 852 150.557 852 150.004H850ZM852 156.978C852 156.425 851.552 155.978 851 155.978C850.448 155.978 850 156.425 850 156.978H852ZM850 163.951C850 164.503 850.448 164.951 851 164.951C851.552 164.951 852 164.503 852 163.951H850ZM852 170.924C852 170.372 851.552 169.924 851 169.924C850.448 169.924 850 170.372 850 170.924H852ZM850 177.897C850 178.45 850.448 178.897 851 178.897C851.552 178.897 852 178.45 852 177.897H850ZM852 184.87C852 184.318 851.552 183.87 851 183.87C850.448 183.87 850 184.318 850 184.87H852ZM850 191.844C850 192.396 850.448 192.844 851 192.844C851.552 192.844 852 192.396 852 191.844H850ZM852 198.817C852 198.265 851.552 197.817 851 197.817C850.448 197.817 850 198.265 850 198.817H852ZM850 205.79C850 206.342 850.448 206.79 851 206.79C851.552 206.79 852 206.342 852 205.79H850ZM852 212.763C852 212.211 851.552 211.763 851 211.763C850.448 211.763 850 212.211 850 212.763H852ZM850 219.736C850 220.289 850.448 220.736 851 220.736C851.552 220.736 852 220.289 852 219.736H850ZM852 226.71C852 226.157 851.552 225.71 851 225.71C850.448 225.71 850 226.157 850 226.71H852ZM850 233.683C850 234.235 850.448 234.683 851 234.683C851.552 234.683 852 234.235 852 233.683H850ZM852 240.656C852 240.104 851.552 239.656 851 239.656C850.448 239.656 850 240.104 850 240.656H852ZM850 247.629C850 248.182 850.448 248.629 851 248.629C851.552 248.629 852 248.182 852 247.629H850ZM852 254.602C852 254.05 851.552 253.602 851 253.602C850.448 253.602 850 254.05 850 254.602H852ZM850 261.576C850 262.128 850.448 262.576 851 262.576C851.552 262.576 852 262.128 852 261.576H850ZM852 268.549C852 267.997 851.552 267.549 851 267.549C850.448 267.549 850 267.997 850 268.549H852ZM850 275.522C850 276.074 850.448 276.522 851 276.522C851.552 276.522 852 276.074 852 275.522H850ZM852 282.495C852 281.943 851.552 281.495 851 281.495C850.448 281.495 850 281.943 850 282.495H852ZM850 289.469C850 290.021 850.448 290.469 851 290.469C851.552 290.469 852 290.021 852 289.469H850ZM852 296.442C852 295.889 851.552 295.442 851 295.442C850.448 295.442 850 295.889 850 296.442H852ZM849.638 303.638C849.531 304.179 849.883 304.706 850.425 304.813C850.967 304.92 851.493 304.568 851.6 304.026L849.638 303.638ZM848.462 311.597C848.77 311.138 848.647 310.517 848.188 310.21C847.729 309.903 847.108 310.026 846.8 310.484L848.462 311.597ZM841.556 315.729C841.097 316.036 840.974 316.657 841.281 317.116C841.589 317.575 842.21 317.698 842.669 317.391L841.556 315.729ZM835.097 320.529C835.639 320.422 835.991 319.895 835.884 319.354C835.777 318.812 835.251 318.46 834.709 318.567L835.097 320.529ZM827.509 318.928C826.956 318.928 826.509 319.376 826.509 319.928C826.509 320.481 826.956 320.928 827.509 320.928V318.928ZM820.526 320.928C821.078 320.928 821.526 320.481 821.526 319.928C821.526 319.376 821.078 318.928 820.526 318.928V320.928ZM813.543 318.928C812.991 318.928 812.543 319.376 812.543 319.928C812.543 320.481 812.991 320.928 813.543 320.928V318.928ZM806.56 320.928C807.113 320.928 807.56 320.481 807.56 319.928C807.56 319.376 807.113 318.928 806.56 318.928V320.928ZM799.578 318.928C799.025 318.928 798.578 319.376 798.578 319.928C798.578 320.481 799.025 320.928 799.578 320.928V318.928ZM792.595 320.928C793.147 320.928 793.595 320.481 793.595 319.928C793.595 319.376 793.147 318.928 792.595 318.928V320.928ZM785.612 318.928C785.06 318.928 784.612 319.376 784.612 319.928C784.612 320.481 785.06 320.928 785.612 320.928V318.928ZM778.629 320.928C779.182 320.928 779.629 320.481 779.629 319.928C779.629 319.376 779.182 318.928 778.629 318.928V320.928ZM771.647 318.928C771.094 318.928 770.647 319.376 770.647 319.928C770.647 320.481 771.094 320.928 771.647 320.928V318.928ZM764.664 320.928C765.216 320.928 765.664 320.481 765.664 319.928C765.664 319.376 765.216 318.928 764.664 318.928V320.928ZM757.681 318.928C757.129 318.928 756.681 319.376 756.681 319.928C756.681 320.481 757.129 320.928 757.681 320.928V318.928ZM750.698 320.928C751.251 320.928 751.698 320.481 751.698 319.928C751.698 319.376 751.251 318.928 750.698 318.928V320.928ZM743.716 318.928C743.163 318.928 742.716 319.376 742.716 319.928C742.716 320.481 743.163 320.928 743.716 320.928V318.928ZM736.733 320.928C737.285 320.928 737.733 320.481 737.733 319.928C737.733 319.376 737.285 318.928 736.733 318.928V320.928ZM729.75 318.928C729.198 318.928 728.75 319.376 728.75 319.928C728.75 320.481 729.198 320.928 729.75 320.928V318.928ZM722.767 320.928C723.32 320.928 723.767 320.481 723.767 319.928C723.767 319.376 723.32 318.928 722.767 318.928V320.928ZM715.784 318.928C715.232 318.928 714.784 319.376 714.784 319.928C714.784 320.481 715.232 320.928 715.784 320.928V318.928ZM708.802 320.928C709.354 320.928 709.802 320.481 709.802 319.928C709.802 319.376 709.354 318.928 708.802 318.928V320.928ZM701.819 318.928C701.267 318.928 700.819 319.376 700.819 319.928C700.819 320.481 701.267 320.928 701.819 320.928V318.928ZM694.836 320.928C695.388 320.928 695.836 320.481 695.836 319.928C695.836 319.376 695.388 318.928 694.836 318.928V320.928ZM687.853 318.928C687.301 318.928 686.853 319.376 686.853 319.928C686.853 320.481 687.301 320.928 687.853 320.928V318.928ZM680.871 320.928C681.423 320.928 681.871 320.481 681.871 319.928C681.871 319.376 681.423 318.928 680.871 318.928V320.928ZM673.888 318.928C673.336 318.928 672.888 319.376 672.888 319.928C672.888 320.481 673.336 320.928 673.888 320.928V318.928ZM666.905 320.928C667.457 320.928 667.905 320.481 667.905 319.928C667.905 319.376 667.457 318.928 666.905 318.928V320.928ZM659.922 318.928C659.37 318.928 658.922 319.376 658.922 319.928C658.922 320.481 659.37 320.928 659.922 320.928V318.928ZM652.94 320.928C653.492 320.928 653.94 320.481 653.94 319.928C653.94 319.376 653.492 318.928 652.94 318.928V320.928ZM645.957 318.928C645.405 318.928 644.957 319.376 644.957 319.928C644.957 320.481 645.405 320.928 645.957 320.928V318.928ZM638.974 320.928C639.526 320.928 639.974 320.481 639.974 319.928C639.974 319.376 639.526 318.928 638.974 318.928V320.928ZM631.991 318.928C631.439 318.928 630.991 319.376 630.991 319.928C630.991 320.481 631.439 320.928 631.991 320.928V318.928ZM625.009 320.928C625.561 320.928 626.009 320.481 626.009 319.928C626.009 319.376 625.561 318.928 625.009 318.928V320.928ZM618.026 318.928C617.474 318.928 617.026 319.376 617.026 319.928C617.026 320.481 617.474 320.928 618.026 320.928V318.928ZM611.043 320.928C611.595 320.928 612.043 320.481 612.043 319.928C612.043 319.376 611.595 318.928 611.043 318.928V320.928ZM604.06 318.928C603.508 318.928 603.06 319.376 603.06 319.928C603.06 320.481 603.508 320.928 604.06 320.928V318.928ZM597.078 320.928C597.63 320.928 598.078 320.481 598.078 319.928C598.078 319.376 597.63 318.928 597.078 318.928V320.928ZM590.095 318.928C589.543 318.928 589.095 319.376 589.095 319.928C589.095 320.481 589.543 320.928 590.095 320.928V318.928ZM583.112 320.928C583.664 320.928 584.112 320.481 584.112 319.928C584.112 319.376 583.664 318.928 583.112 318.928V320.928ZM576.129 318.928C575.577 318.928 575.129 319.376 575.129 319.928C575.129 320.481 575.577 320.928 576.129 320.928V318.928ZM569.147 320.928C569.699 320.928 570.147 320.481 570.147 319.928C570.147 319.376 569.699 318.928 569.147 318.928V320.928ZM562.164 318.928C561.612 318.928 561.164 319.376 561.164 319.928C561.164 320.481 561.612 320.928 562.164 320.928V318.928ZM555.181 320.928C555.733 320.928 556.181 320.481 556.181 319.928C556.181 319.376 555.733 318.928 555.181 318.928V320.928ZM548.198 318.928C547.646 318.928 547.198 319.376 547.198 319.928C547.198 320.481 547.646 320.928 548.198 320.928V318.928ZM541.216 320.928C541.768 320.928 542.216 320.481 542.216 319.928C542.216 319.376 541.768 318.928 541.216 318.928V320.928ZM534.233 318.928C533.681 318.928 533.233 319.376 533.233 319.928C533.233 320.481 533.681 320.928 534.233 320.928V318.928ZM527.25 320.928C527.802 320.928 528.25 320.481 528.25 319.928C528.25 319.376 527.802 318.928 527.25 318.928V320.928ZM520.267 318.928C519.715 318.928 519.267 319.376 519.267 319.928C519.267 320.481 519.715 320.928 520.267 320.928V318.928ZM513.285 320.928C513.837 320.928 514.285 320.481 514.285 319.928C514.285 319.376 513.837 318.928 513.285 318.928V320.928ZM506.302 318.928C505.749 318.928 505.302 319.376 505.302 319.928C505.302 320.481 505.749 320.928 506.302 320.928V318.928ZM499.319 320.928C499.871 320.928 500.319 320.481 500.319 319.928C500.319 319.376 499.871 318.928 499.319 318.928V320.928ZM492.336 318.928C491.784 318.928 491.336 319.376 491.336 319.928C491.336 320.481 491.784 320.928 492.336 320.928V318.928ZM485.353 320.928C485.906 320.928 486.353 320.481 486.353 319.928C486.353 319.376 485.906 318.928 485.353 318.928V320.928ZM478.371 318.928C477.818 318.928 477.371 319.376 477.371 319.928C477.371 320.481 477.818 320.928 478.371 320.928V318.928ZM471.388 320.928C471.94 320.928 472.388 320.481 472.388 319.928C472.388 319.376 471.94 318.928 471.388 318.928V320.928ZM464.405 318.928C463.853 318.928 463.405 319.376 463.405 319.928C463.405 320.481 463.853 320.928 464.405 320.928V318.928ZM457.422 320.928C457.975 320.928 458.422 320.481 458.422 319.928C458.422 319.376 457.975 318.928 457.422 318.928V320.928ZM450.44 318.928C449.887 318.928 449.44 319.376 449.44 319.928C449.44 320.481 449.887 320.928 450.44 320.928V318.928ZM443.457 320.928C444.009 320.928 444.457 320.481 444.457 319.928C444.457 319.376 444.009 318.928 443.457 318.928V320.928ZM436.474 318.928C435.922 318.928 435.474 319.376 435.474 319.928C435.474 320.481 435.922 320.928 436.474 320.928V318.928ZM429.491 320.928C430.044 320.928 430.491 320.481 430.491 319.928C430.491 319.376 430.044 318.928 429.491 318.928V320.928ZM422.509 318.928C421.956 318.928 421.509 319.376 421.509 319.928C421.509 320.481 421.956 320.928 422.509 320.928V318.928ZM415.526 320.928C416.078 320.928 416.526 320.481 416.526 319.928C416.526 319.376 416.078 318.928 415.526 318.928V320.928ZM408.543 318.928C407.991 318.928 407.543 319.376 407.543 319.928C407.543 320.481 407.991 320.928 408.543 320.928V318.928ZM401.56 320.928C402.113 320.928 402.56 320.481 402.56 319.928C402.56 319.376 402.113 318.928 401.56 318.928V320.928ZM394.578 318.928C394.025 318.928 393.578 319.376 393.578 319.928C393.578 320.481 394.025 320.928 394.578 320.928V318.928ZM387.595 320.928C388.147 320.928 388.595 320.481 388.595 319.928C388.595 319.376 388.147 318.928 387.595 318.928V320.928ZM380.612 318.928C380.06 318.928 379.612 319.376 379.612 319.928C379.612 320.481 380.06 320.928 380.612 320.928V318.928ZM373.629 320.928C374.182 320.928 374.629 320.481 374.629 319.928C374.629 319.376 374.182 318.928 373.629 318.928V320.928ZM366.647 318.928C366.094 318.928 365.647 319.376 365.647 319.928C365.647 320.481 366.094 320.928 366.647 320.928V318.928ZM359.664 320.928C360.216 320.928 360.664 320.481 360.664 319.928C360.664 319.376 360.216 318.928 359.664 318.928V320.928ZM352.681 318.928C352.129 318.928 351.681 319.376 351.681 319.928C351.681 320.481 352.129 320.928 352.681 320.928V318.928ZM345.698 320.928C346.251 320.928 346.698 320.481 346.698 319.928C346.698 319.376 346.251 318.928 345.698 318.928V320.928ZM338.716 318.928C338.163 318.928 337.716 319.376 337.716 319.928C337.716 320.481 338.163 320.928 338.716 320.928V318.928ZM331.733 320.928C332.285 320.928 332.733 320.481 332.733 319.928C332.733 319.376 332.285 318.928 331.733 318.928V320.928ZM324.75 318.928C324.198 318.928 323.75 319.376 323.75 319.928C323.75 320.481 324.198 320.928 324.75 320.928V318.928ZM317.767 320.928C318.32 320.928 318.767 320.481 318.767 319.928C318.767 319.376 318.32 318.928 317.767 318.928V320.928ZM310.784 318.928C310.232 318.928 309.784 319.376 309.784 319.928C309.784 320.481 310.232 320.928 310.784 320.928V318.928ZM303.802 320.928C304.354 320.928 304.802 320.481 304.802 319.928C304.802 319.376 304.354 318.928 303.802 318.928V320.928ZM296.819 318.928C296.267 318.928 295.819 319.376 295.819 319.928C295.819 320.481 296.267 320.928 296.819 320.928V318.928ZM289.836 320.928C290.388 320.928 290.836 320.481 290.836 319.928C290.836 319.376 290.388 318.928 289.836 318.928V320.928ZM282.853 318.928C282.301 318.928 281.853 319.376 281.853 319.928C281.853 320.481 282.301 320.928 282.853 320.928V318.928ZM275.871 320.928C276.423 320.928 276.871 320.481 276.871 319.928C276.871 319.376 276.423 318.928 275.871 318.928V320.928ZM268.888 318.928C268.336 318.928 267.888 319.376 267.888 319.928C267.888 320.481 268.336 320.928 268.888 320.928V318.928ZM261.905 320.928C262.457 320.928 262.905 320.481 262.905 319.928C262.905 319.376 262.457 318.928 261.905 318.928V320.928ZM254.922 318.928C254.37 318.928 253.922 319.376 253.922 319.928C253.922 320.481 254.37 320.928 254.922 320.928V318.928ZM247.94 320.928C248.492 320.928 248.94 320.481 248.94 319.928C248.94 319.376 248.492 318.928 247.94 318.928V320.928ZM240.957 318.928C240.405 318.928 239.957 319.376 239.957 319.928C239.957 320.481 240.405 320.928 240.957 320.928V318.928ZM233.974 320.928C234.526 320.928 234.974 320.481 234.974 319.928C234.974 319.376 234.526 318.928 233.974 318.928V320.928ZM226.991 318.928C226.439 318.928 225.991 319.376 225.991 319.928C225.991 320.481 226.439 320.928 226.991 320.928V318.928ZM220.009 320.928C220.561 320.928 221.009 320.481 221.009 319.928C221.009 319.376 220.561 318.928 220.009 318.928V320.928ZM213.026 318.928C212.474 318.928 212.026 319.376 212.026 319.928C212.026 320.481 212.474 320.928 213.026 320.928V318.928ZM206.043 320.928C206.595 320.928 207.043 320.481 207.043 319.928C207.043 319.376 206.595 318.928 206.043 318.928V320.928ZM199.06 318.928C198.508 318.928 198.06 319.376 198.06 319.928C198.06 320.481 198.508 320.928 199.06 320.928V318.928ZM192.078 320.928C192.63 320.928 193.078 320.481 193.078 319.928C193.078 319.376 192.63 318.928 192.078 318.928V320.928ZM185.095 318.928C184.543 318.928 184.095 319.376 184.095 319.928C184.095 320.481 184.543 320.928 185.095 320.928V318.928ZM178.112 320.928C178.664 320.928 179.112 320.481 179.112 319.928C179.112 319.376 178.664 318.928 178.112 318.928V320.928ZM171.129 318.928C170.577 318.928 170.129 319.376 170.129 319.928C170.129 320.481 170.577 320.928 171.129 320.928V318.928ZM164.147 320.928C164.699 320.928 165.147 320.481 165.147 319.928C165.147 319.376 164.699 318.928 164.147 318.928V320.928ZM157.164 318.928C156.612 318.928 156.164 319.376 156.164 319.928C156.164 320.481 156.612 320.928 157.164 320.928V318.928ZM150.181 320.928C150.733 320.928 151.181 320.481 151.181 319.928C151.181 319.376 150.733 318.928 150.181 318.928V320.928ZM143.198 318.928C142.646 318.928 142.198 319.376 142.198 319.928C142.198 320.481 142.646 320.928 143.198 320.928V318.928ZM136.216 320.928C136.768 320.928 137.216 320.481 137.216 319.928C137.216 319.376 136.768 318.928 136.216 318.928V320.928ZM129.233 318.928C128.681 318.928 128.233 319.376 128.233 319.928C128.233 320.481 128.681 320.928 129.233 320.928V318.928ZM122.25 320.928C122.802 320.928 123.25 320.481 123.25 319.928C123.25 319.376 122.802 318.928 122.25 318.928V320.928ZM115.267 318.928C114.715 318.928 114.267 319.376 114.267 319.928C114.267 320.481 114.715 320.928 115.267 320.928V318.928ZM108.285 320.928C108.837 320.928 109.285 320.481 109.285 319.928C109.285 319.376 108.837 318.928 108.285 318.928V320.928ZM101.302 318.928C100.749 318.928 100.302 319.376 100.302 319.928C100.302 320.481 100.749 320.928 101.302 320.928V318.928ZM94.319 320.928C94.8713 320.928 95.319 320.481 95.319 319.928C95.319 319.376 94.8713 318.928 94.319 318.928V320.928ZM87.3362 318.928C86.784 318.928 86.3362 319.376 86.3362 319.928C86.3362 320.481 86.784 320.928 87.3362 320.928V318.928ZM80.3535 320.928C80.9058 320.928 81.3535 320.481 81.3535 319.928C81.3535 319.376 80.9058 318.928 80.3535 318.928V320.928ZM73.3707 318.928C72.8184 318.928 72.3707 319.376 72.3707 319.928C72.3707 320.481 72.8184 320.928 73.3707 320.928V318.928ZM66.388 320.928C66.9403 320.928 67.388 320.481 67.388 319.928C67.388 319.376 66.9403 318.928 66.388 318.928V320.928ZM59.4052 318.928C58.8529 318.928 58.4052 319.376 58.4052 319.928C58.4052 320.481 58.8529 320.928 59.4052 320.928V318.928ZM52.4224 320.928C52.9747 320.928 53.4224 320.481 53.4224 319.928C53.4224 319.376 52.9747 318.928 52.4224 318.928V320.928ZM45.4397 318.928C44.8874 318.928 44.4397 319.376 44.4397 319.928C44.4397 320.481 44.8874 320.928 45.4397 320.928V318.928ZM38.4569 320.928C39.0092 320.928 39.4569 320.481 39.4569 319.928C39.4569 319.376 39.0092 318.928 38.4569 318.928V320.928ZM31.4742 318.928C30.9219 318.928 30.4742 319.376 30.4742 319.928C30.4742 320.481 30.9219 320.928 31.4742 320.928V318.928ZM24.4914 320.928C25.0437 320.928 25.4914 320.481 25.4914 319.928C25.4914 319.376 25.0437 318.928 24.4914 318.928V320.928ZM16.9027 319.328C16.3609 319.435 16.0086 319.961 16.1158 320.503C16.223 321.045 16.749 321.397 17.2908 321.29L16.9027 319.328ZM10.444 324.128C10.9029 323.821 11.0259 323.2 10.7187 322.741C10.4114 322.282 9.7903 322.159 9.33137 322.466L10.444 324.128ZM3.53772 328.26C3.23048 328.719 3.35344 329.34 3.81237 329.647C4.2713 329.954 4.89241 329.831 5.19966 329.372L3.53772 328.26ZM2.36167 336.219C2.46885 335.677 2.11653 335.151 1.57475 335.044C1.03296 334.937 0.506874 335.289 0.399693 335.831L2.36167 336.219ZM0 343.429C0 343.982 0.447715 344.429 1 344.429C1.55228 344.429 2 343.982 2 343.429H0ZM2 350.431C2 349.879 1.55228 349.431 1 349.431C0.447715 349.431 0 349.879 0 350.431H2ZM0 357.433C0 357.985 0.447715 358.433 1 358.433C1.55228 358.433 2 357.985 2 357.433H0ZM2 364.435C2 363.882 1.55228 363.435 1 363.435C0.447715 363.435 0 363.882 0 364.435H2ZM0 371.436C0 371.989 0.447715 372.436 1 372.436C1.55228 372.436 2 371.989 2 371.436H0ZM2 378.438C2 377.886 1.55228 377.438 1 377.438C0.447715 377.438 0 377.886 0 378.438H2ZM0 385.44C0 385.992 0.447715 386.44 1 386.44C1.55228 386.44 2 385.992 2 385.44H0ZM2 392.442C2 391.89 1.55228 391.442 1 391.442C0.447715 391.442 0 391.89 0 392.442H2ZM0 399.444C0 399.996 0.447715 400.444 1 400.444C1.55228 400.444 2 399.996 2 399.444H0ZM2 406.445C2 405.893 1.55228 405.445 1 405.445C0.447715 405.445 0 405.893 0 406.445H2ZM0 413.447C0 414 0.447715 414.447 1 414.447C1.55228 414.447 2 414 2 413.447H0ZM2 420.449C2 419.897 1.55228 419.449 1 419.449C0.447715 419.449 0 419.897 0 420.449H2ZM0 427.451C0 428.003 0.447715 428.451 1 428.451C1.55228 428.451 2 428.003 2 427.451H0ZM2 434.453C2 433.9 1.55228 433.453 1 433.453C0.447715 433.453 0 433.9 0 434.453H2ZM0 441.454C0 442.007 0.447715 442.454 1 442.454C1.55228 442.454 2 442.007 2 441.454H0ZM2 448.456C2 447.904 1.55228 447.456 1 447.456C0.447715 447.456 0 447.904 0 448.456H2ZM0 455.458C0 456.01 0.447715 456.458 1 456.458C1.55228 456.458 2 456.01 2 455.458H0ZM2 462.46C2 461.907 1.55228 461.46 1 461.46C0.447715 461.46 0 461.907 0 462.46H2ZM0 469.462C0 470.014 0.447715 470.462 1 470.462C1.55228 470.462 2 470.014 2 469.462H0ZM2 476.463C2 475.911 1.55228 475.463 1 475.463C0.447715 475.463 0 475.911 0 476.463H2ZM0 483.465C0 484.017 0.447715 484.465 1 484.465C1.55228 484.465 2 484.017 2 483.465H0ZM2 490.467C2 489.915 1.55228 489.467 1 489.467C0.447715 489.467 0 489.915 0 490.467H2ZM0 497.469C0 498.021 0.447715 498.469 1 498.469C1.55228 498.469 2 498.021 2 497.469H0ZM2 504.47C2 503.918 1.55228 503.47 1 503.47C0.447715 503.47 0 503.918 0 504.47H2ZM0 511.472C0 512.025 0.447715 512.472 1 512.472C1.55228 512.472 2 512.025 2 511.472H0ZM2 518.474C2 517.922 1.55228 517.474 1 517.474C0.447715 517.474 0 517.922 0 518.474H2ZM0 525.476C0 526.028 0.447715 526.476 1 526.476C1.55228 526.476 2 526.028 2 525.476H0ZM2 532.478C2 531.925 1.55228 531.478 1 531.478C0.447715 531.478 0 531.925 0 532.478H2ZM0 539.479C0 540.032 0.447715 540.479 1 540.479C1.55228 540.479 2 540.032 2 539.479H0ZM2 546.481C2 545.929 1.55228 545.481 1 545.481C0.447715 545.481 0 545.929 0 546.481H2ZM0 553.483C0 554.035 0.447715 554.483 1 554.483C1.55228 554.483 2 554.035 2 553.483H0ZM2 560.485C2 559.933 1.55228 559.485 1 559.485C0.447715 559.485 0 559.933 0 560.485H2ZM0 567.487C0 568.039 0.447715 568.487 1 568.487C1.55228 568.487 2 568.039 2 567.487H0ZM2 574.488C2 573.936 1.55228 573.488 1 573.488C0.447715 573.488 0 573.936 0 574.488H2ZM0 581.49C0 582.042 0.447715 582.49 1 582.49C1.55228 582.49 2 582.042 2 581.49H0ZM2 588.492C2 587.94 1.55228 587.492 1 587.492C0.447715 587.492 0 587.94 0 588.492H2ZM0 595.494C0 596.046 0.447715 596.494 1 596.494C1.55228 596.494 2 596.046 2 595.494H0ZM2 602.495C2 601.943 1.55228 601.495 1 601.495C0.447715 601.495 0 601.943 0 602.495H2ZM0 609.497C0 610.05 0.447715 610.497 1 610.497C1.55228 610.497 2 610.05 2 609.497H0ZM2 616.499C2 615.947 1.55228 615.499 1 615.499C0.447715 615.499 0 615.947 0 616.499H2ZM0.399693 624.097C0.506874 624.639 1.03297 624.991 1.57475 624.884C2.11653 624.777 2.46885 624.251 2.36167 623.709L0.399693 624.097ZM5.19966 630.556C4.89241 630.097 4.2713 629.974 3.81237 630.281C3.35344 630.589 3.23048 631.21 3.53772 631.669L5.19966 630.556ZM9.33136 637.462C9.7903 637.77 10.4114 637.647 10.7187 637.188C11.0259 636.729 10.9029 636.108 10.444 635.8L9.33136 637.462ZM17.2908 638.638C16.749 638.531 16.223 638.883 16.1158 639.425C16.0086 639.967 16.3609 640.493 16.9027 640.6L17.2908 638.638ZM24.4914 641C25.0437 641 25.4914 640.552 25.4914 640C25.4914 639.448 25.0437 639 24.4914 639V641ZM31.4741 639C30.9219 639 30.4741 639.448 30.4741 640C30.4741 640.552 30.9219 641 31.4741 641V639ZM38.4569 641C39.0092 641 39.4569 640.552 39.4569 640C39.4569 639.448 39.0092 639 38.4569 639V641ZM45.4397 639C44.8874 639 44.4397 639.448 44.4397 640C44.4397 640.552 44.8874 641 45.4397 641V639ZM52.4224 641C52.9747 641 53.4224 640.552 53.4224 640C53.4224 639.448 52.9747 639 52.4224 639V641ZM59.4052 639C58.8529 639 58.4052 639.448 58.4052 640C58.4052 640.552 58.8529 641 59.4052 641V639ZM66.3879 641C66.9402 641 67.3879 640.552 67.3879 640C67.3879 639.448 66.9402 639 66.3879 639V641ZM73.3707 639C72.8184 639 72.3707 639.448 72.3707 640C72.3707 640.552 72.8184 641 73.3707 641V639ZM80.3534 641C80.9057 641 81.3534 640.552 81.3534 640C81.3534 639.448 80.9057 639 80.3534 639V641ZM87.3362 639C86.7839 639 86.3362 639.448 86.3362 640C86.3362 640.552 86.7839 641 87.3362 641V639ZM94.319 641C94.8712 641 95.319 640.552 95.319 640C95.319 639.448 94.8712 639 94.319 639V641ZM101.302 639C100.749 639 100.302 639.448 100.302 640C100.302 640.552 100.749 641 101.302 641V639ZM108.284 641C108.837 641 109.284 640.552 109.284 640C109.284 639.448 108.837 639 108.284 639V641ZM115.267 639C114.715 639 114.267 639.448 114.267 640C114.267 640.552 114.715 641 115.267 641V639ZM122.25 641C122.802 641 123.25 640.552 123.25 640C123.25 639.448 122.802 639 122.25 639V641ZM129.233 639C128.68 639 128.233 639.448 128.233 640C128.233 640.552 128.68 641 129.233 641V639ZM136.216 641C136.768 641 137.216 640.552 137.216 640C137.216 639.448 136.768 639 136.216 639V641ZM143.198 639C142.646 639 142.198 639.448 142.198 640C142.198 640.552 142.646 641 143.198 641V639ZM150.181 641C150.733 641 151.181 640.552 151.181 640C151.181 639.448 150.733 639 150.181 639V641ZM157.164 639C156.612 639 156.164 639.448 156.164 640C156.164 640.552 156.612 641 157.164 641V639ZM164.147 641C164.699 641 165.147 640.552 165.147 640C165.147 639.448 164.699 639 164.147 639V641ZM171.129 639C170.577 639 170.129 639.448 170.129 640C170.129 640.552 170.577 641 171.129 641V639ZM178.112 641C178.664 641 179.112 640.552 179.112 640C179.112 639.448 178.664 639 178.112 639V641ZM185.095 639C184.543 639 184.095 639.448 184.095 640C184.095 640.552 184.543 641 185.095 641V639ZM192.078 641C192.63 641 193.078 640.552 193.078 640C193.078 639.448 192.63 639 192.078 639V641ZM199.06 639C198.508 639 198.06 639.448 198.06 640C198.06 640.552 198.508 641 199.06 641V639ZM206.043 641C206.595 641 207.043 640.552 207.043 640C207.043 639.448 206.595 639 206.043 639V641ZM213.026 639C212.474 639 212.026 639.448 212.026 640C212.026 640.552 212.474 641 213.026 641V639ZM220.009 641C220.561 641 221.009 640.552 221.009 640C221.009 639.448 220.561 639 220.009 639V641ZM226.991 639C226.439 639 225.991 639.448 225.991 640C225.991 640.552 226.439 641 226.991 641V639ZM233.974 641C234.526 641 234.974 640.552 234.974 640C234.974 639.448 234.526 639 233.974 639V641ZM240.957 639C240.405 639 239.957 639.448 239.957 640C239.957 640.552 240.405 641 240.957 641V639ZM247.94 641C248.492 641 248.94 640.552 248.94 640C248.94 639.448 248.492 639 247.94 639V641ZM254.922 639C254.37 639 253.922 639.448 253.922 640C253.922 640.552 254.37 641 254.922 641V639ZM261.905 641C262.457 641 262.905 640.552 262.905 640C262.905 639.448 262.457 639 261.905 639V641ZM268.888 639C268.336 639 267.888 639.448 267.888 640C267.888 640.552 268.336 641 268.888 641V639ZM275.871 641C276.423 641 276.871 640.552 276.871 640C276.871 639.448 276.423 639 275.871 639V641ZM282.853 639C282.301 639 281.853 639.448 281.853 640C281.853 640.552 282.301 641 282.853 641V639ZM289.836 641C290.388 641 290.836 640.552 290.836 640C290.836 639.448 290.388 639 289.836 639V641ZM296.819 639C296.267 639 295.819 639.448 295.819 640C295.819 640.552 296.267 641 296.819 641V639ZM303.802 641C304.354 641 304.802 640.552 304.802 640C304.802 639.448 304.354 639 303.802 639V641ZM310.784 639C310.232 639 309.784 639.448 309.784 640C309.784 640.552 310.232 641 310.784 641V639ZM317.767 641C318.319 641 318.767 640.552 318.767 640C318.767 639.448 318.319 639 317.767 639V641ZM324.75 639C324.198 639 323.75 639.448 323.75 640C323.75 640.552 324.198 641 324.75 641V639ZM331.733 641C332.285 641 332.733 640.552 332.733 640C332.733 639.448 332.285 639 331.733 639V641ZM338.715 639C338.163 639 337.715 639.448 337.715 640C337.715 640.552 338.163 641 338.715 641V639ZM345.698 641C346.251 641 346.698 640.552 346.698 640C346.698 639.448 346.251 639 345.698 639V641ZM352.681 639C352.129 639 351.681 639.448 351.681 640C351.681 640.552 352.129 641 352.681 641V639ZM359.664 641C360.216 641 360.664 640.552 360.664 640C360.664 639.448 360.216 639 359.664 639V641ZM366.647 639C366.094 639 365.647 639.448 365.647 640C365.647 640.552 366.094 641 366.647 641V639ZM373.629 641C374.182 641 374.629 640.552 374.629 640C374.629 639.448 374.182 639 373.629 639V641ZM380.612 639C380.06 639 379.612 639.448 379.612 640C379.612 640.552 380.06 641 380.612 641V639ZM387.595 641C388.147 641 388.595 640.552 388.595 640C388.595 639.448 388.147 639 387.595 639V641ZM394.578 639C394.025 639 393.578 639.448 393.578 640C393.578 640.552 394.025 641 394.578 641V639ZM401.56 641C402.113 641 402.56 640.552 402.56 640C402.56 639.448 402.113 639 401.56 639V641ZM408.543 639C407.991 639 407.543 639.448 407.543 640C407.543 640.552 407.991 641 408.543 641V639ZM415.526 641C416.078 641 416.526 640.552 416.526 640C416.526 639.448 416.078 639 415.526 639V641ZM422.509 639C421.956 639 421.509 639.448 421.509 640C421.509 640.552 421.956 641 422.509 641V639ZM429.542 641C430.094 641 430.542 640.552 430.542 640C430.542 639.448 430.094 639 429.542 639V641ZM436.625 639C436.073 639 435.625 639.448 435.625 640C435.625 640.552 436.073 641 436.625 641V639ZM443.708 641C444.261 641 444.708 640.552 444.708 640C444.708 639.448 444.261 639 443.708 639V641ZM450.792 639C450.239 639 449.792 639.448 449.792 640C449.792 640.552 450.239 641 450.792 641V639ZM457.875 641C458.427 641 458.875 640.552 458.875 640C458.875 639.448 458.427 639 457.875 639V641ZM464.958 639C464.406 639 463.958 639.448 463.958 640C463.958 640.552 464.406 641 464.958 641V639ZM472.042 641C472.594 641 473.042 640.552 473.042 640C473.042 639.448 472.594 639 472.042 639V641ZM479.125 639C478.573 639 478.125 639.448 478.125 640C478.125 640.552 478.573 641 479.125 641V639ZM486.208 641C486.761 641 487.208 640.552 487.208 640C487.208 639.448 486.761 639 486.208 639V641ZM493.292 639C492.739 639 492.292 639.448 492.292 640C492.292 640.552 492.739 641 493.292 641V639ZM500.375 641C500.927 641 501.375 640.552 501.375 640C501.375 639.448 500.927 639 500.375 639V641ZM507.458 639C506.906 639 506.458 639.448 506.458 640C506.458 640.552 506.906 641 507.458 641V639ZM514.542 641C515.094 641 515.542 640.552 515.542 640C515.542 639.448 515.094 639 514.542 639V641ZM521.625 639C521.073 639 520.625 639.448 520.625 640C520.625 640.552 521.073 641 521.625 641V639ZM528.708 641C529.261 641 529.708 640.552 529.708 640C529.708 639.448 529.261 639 528.708 639V641ZM535.792 639C535.239 639 534.792 639.448 534.792 640C534.792 640.552 535.239 641 535.792 641V639ZM542.875 641C543.427 641 543.875 640.552 543.875 640C543.875 639.448 543.427 639 542.875 639V641ZM549.958 639C549.406 639 548.958 639.448 548.958 640C548.958 640.552 549.406 641 549.958 641V639ZM557.042 641C557.594 641 558.042 640.552 558.042 640C558.042 639.448 557.594 639 557.042 639V641ZM564.125 639C563.573 639 563.125 639.448 563.125 640C563.125 640.552 563.573 641 564.125 641V639ZM571.208 641C571.761 641 572.208 640.552 572.208 640C572.208 639.448 571.761 639 571.208 639V641ZM578.292 639C577.739 639 577.292 639.448 577.292 640C577.292 640.552 577.739 641 578.292 641V639ZM585.375 641C585.927 641 586.375 640.552 586.375 640C586.375 639.448 585.927 639 585.375 639V641ZM592.458 639C591.906 639 591.458 639.448 591.458 640C591.458 640.552 591.906 641 592.458 641V639ZM599.542 641C600.094 641 600.542 640.552 600.542 640C600.542 639.448 600.094 639 599.542 639V641ZM606.625 639C606.073 639 605.625 639.448 605.625 640C605.625 640.552 606.073 641 606.625 641V639ZM613.708 641C614.261 641 614.708 640.552 614.708 640C614.708 639.448 614.261 639 613.708 639V641ZM620.792 639C620.239 639 619.792 639.448 619.792 640C619.792 640.552 620.239 641 620.792 641V639ZM627.875 641C628.427 641 628.875 640.552 628.875 640C628.875 639.448 628.427 639 627.875 639V641ZM634.958 639C634.406 639 633.958 639.448 633.958 640C633.958 640.552 634.406 641 634.958 641V639ZM642.054 641C642.606 641 643.054 640.552 643.054 640C643.054 639.448 642.606 639 642.054 639V641ZM649.161 639C648.608 639 648.161 639.448 648.161 640C648.161 640.552 648.608 641 649.161 641V639ZM656.268 641C656.82 641 657.268 640.552 657.268 640C657.268 639.448 656.82 639 656.268 639V641ZM663.375 639C662.823 639 662.375 639.448 662.375 640C662.375 640.552 662.823 641 663.375 641V639ZM670.482 641C671.034 641 671.482 640.552 671.482 640C671.482 639.448 671.034 639 670.482 639V641ZM677.589 639C677.037 639 676.589 639.448 676.589 640C676.589 640.552 677.037 641 677.589 641V639ZM684.696 641C685.249 641 685.696 640.552 685.696 640C685.696 639.448 685.249 639 684.696 639V641ZM691.804 639C691.251 639 690.804 639.448 690.804 640C690.804 640.552 691.251 641 691.804 641V639ZM698.911 641C699.463 641 699.911 640.552 699.911 640C699.911 639.448 699.463 639 698.911 639V641ZM706.018 639C705.466 639 705.018 639.448 705.018 640C705.018 640.552 705.466 641 706.018 641V639ZM713.125 641C713.677 641 714.125 640.552 714.125 640C714.125 639.448 713.677 639 713.125 639V641ZM720.232 639C719.68 639 719.232 639.448 719.232 640C719.232 640.552 719.68 641 720.232 641V639ZM727.339 641C727.892 641 728.339 640.552 728.339 640C728.339 639.448 727.892 639 727.339 639V641ZM734.446 639C733.894 639 733.446 639.448 733.446 640C733.446 640.552 733.894 641 734.446 641V639ZM81 2H84.3125V0H81V2ZM90.9375 2H97.5625V0H90.9375V2ZM104.187 2H110.812V0H104.187V2ZM117.438 2H124.062V0H117.438V2ZM130.688 2H137.313V0H130.688V2ZM143.937 2H147.25V0H143.937V2ZM147.25 2H150.563V0H147.25V2ZM157.188 2H163.812V0H157.188V2ZM170.437 2H177.062V0H170.437V2ZM183.688 2H190.312V0H183.688V2ZM196.938 2H203.563V0H196.938V2ZM210.187 2H213.5V0H210.187V2ZM213.5 2H217.042V0H213.5V2ZM224.125 2H231.208V0H224.125V2ZM238.292 2H245.375V0H238.292V2ZM252.458 2H259.542V0H252.458V2ZM266.625 2H273.708V0H266.625V2ZM280.792 2H287.875V0H280.792V2ZM294.958 2H302.042V0H294.958V2ZM309.125 2H316.208V0H309.125V2ZM323.292 2H330.375V0H323.292V2ZM337.458 2H344.542V0H337.458V2ZM351.625 2H358.708V0H351.625V2ZM365.792 2H372.875V0H365.792V2ZM379.958 2H387.042V0H379.958V2ZM394.125 2H401.208V0H394.125V2ZM408.292 2H415.375V0H408.292V2ZM422.458 2H426V0H422.458V2ZM426 2H429.491V0H426V2ZM436.474 2H443.457V0H436.474V2ZM450.44 2H457.422V0H450.44V2ZM464.405 2H471.388V0H464.405V2ZM478.371 2H485.353V0H478.371V2ZM492.336 2H499.319V0H492.336V2ZM506.302 2H513.284V0H506.302V2ZM520.267 2H527.25V0H520.267V2ZM534.233 2H541.216V0H534.233V2ZM548.198 2H555.181V0H548.198V2ZM562.164 2H569.147V0H562.164V2ZM576.129 2H583.112V0H576.129V2ZM590.095 2H597.078V0H590.095V2ZM604.06 2H611.043V0H604.06V2ZM618.026 2H625.009V0H618.026V2ZM631.991 2H638.974V0H631.991V2ZM645.957 2H652.94V0H645.957V2ZM659.922 2H666.905V0H659.922V2ZM673.888 2H680.871V0H673.888V2ZM687.853 2H694.836V0H687.853V2ZM701.819 2H708.802V0H701.819V2ZM715.784 2H722.767V0H715.784V2ZM729.75 2H736.733V0H729.75V2ZM743.715 2H750.698V0H743.715V2ZM757.681 2H764.664V0H757.681V2ZM771.647 2H778.629V0H771.647V2ZM785.612 2H792.595V0H785.612V2ZM799.578 2H806.56V0H799.578V2ZM813.543 2H820.526V0H813.543V2ZM827.509 2H831V0H827.509V2ZM831 2C832.27 2 833.51 2.1245 834.709 2.36167L835.097 0.399693C833.771 0.137375 832.401 0 831 0V2ZM841.556 5.19966C843.628 6.5871 845.413 8.3716 846.8 10.444L848.462 9.33137C846.929 7.04172 844.958 5.07061 842.669 3.53772L841.556 5.19966ZM849.638 17.2908C849.875 18.4897 850 19.7298 850 21H852C852 19.5988 851.863 18.2287 851.6 16.9027L849.638 17.2908ZM850 21V24.4866H852V21H850ZM850 31.4598V38.433H852V31.4598H850ZM850 45.4062V52.3795H852V45.4062H850ZM850 59.3527V66.3259H852V59.3527H850ZM850 73.2991V80.2723H852V73.2991H850ZM850 87.2455V94.2187H852V87.2455H850ZM850 101.192V108.165H852V101.192H850ZM850 115.138V122.112H852V115.138H850ZM850 129.085V136.058H852V129.085H850ZM850 143.031V150.004H852V143.031H850ZM850 156.978V163.951H852V156.978H850ZM850 170.924V177.897H852V170.924H850ZM850 184.87V191.844H852V184.87H850ZM850 198.817V205.79H852V198.817H850ZM850 212.763V219.736H852V212.763H850ZM850 226.71V233.683H852V226.71H850ZM850 240.656V247.629H852V240.656H850ZM850 254.602V261.576H852V254.602H850ZM850 268.549V275.522H852V268.549H850ZM850 282.495V289.469H852V282.495H850ZM850 296.442V299.928H852V296.442H850ZM850 299.928C850 301.199 849.875 302.439 849.638 303.638L851.6 304.026C851.863 302.7 852 301.33 852 299.928H850ZM846.8 310.484C845.413 312.557 843.628 314.341 841.556 315.729L842.669 317.391C844.958 315.858 846.929 313.887 848.462 311.597L846.8 310.484ZM834.709 318.567C833.51 318.804 832.27 318.928 831 318.928V320.928C832.401 320.928 833.771 320.791 835.097 320.529L834.709 318.567ZM831 318.928H827.509V320.928H831V318.928ZM820.526 318.928H813.543V320.928H820.526V318.928ZM806.56 318.928H799.578V320.928H806.56V318.928ZM792.595 318.928H785.612V320.928H792.595V318.928ZM778.629 318.928H771.647V320.928H778.629V318.928ZM764.664 318.928H757.681V320.928H764.664V318.928ZM750.698 318.928H743.716V320.928H750.698V318.928ZM736.733 318.928H729.75V320.928H736.733V318.928ZM722.767 318.928H715.784V320.928H722.767V318.928ZM708.802 318.928H701.819V320.928H708.802V318.928ZM694.836 318.928H687.853V320.928H694.836V318.928ZM680.871 318.928H673.888V320.928H680.871V318.928ZM666.905 318.928H659.922V320.928H666.905V318.928ZM652.94 318.928H645.957V320.928H652.94V318.928ZM638.974 318.928H631.991V320.928H638.974V318.928ZM625.009 318.928H618.026V320.928H625.009V318.928ZM611.043 318.928H604.06V320.928H611.043V318.928ZM597.078 318.928H590.095V320.928H597.078V318.928ZM583.112 318.928H576.129V320.928H583.112V318.928ZM569.147 318.928H562.164V320.928H569.147V318.928ZM555.181 318.928H548.198V320.928H555.181V318.928ZM541.216 318.928H534.233V320.928H541.216V318.928ZM527.25 318.928H520.267V320.928H527.25V318.928ZM513.285 318.928H506.302V320.928H513.285V318.928ZM499.319 318.928H492.336V320.928H499.319V318.928ZM485.353 318.928H478.371V320.928H485.353V318.928ZM471.388 318.928H464.405V320.928H471.388V318.928ZM457.422 318.928H450.44V320.928H457.422V318.928ZM443.457 318.928H436.474V320.928H443.457V318.928ZM429.491 318.928H426V320.928H429.491V318.928ZM426 318.928H422.509V320.928H426V318.928ZM415.526 318.928H408.543V320.928H415.526V318.928ZM401.56 318.928H394.578V320.928H401.56V318.928ZM387.595 318.928H380.612V320.928H387.595V318.928ZM373.629 318.928H366.647V320.928H373.629V318.928ZM359.664 318.928H352.681V320.928H359.664V318.928ZM345.698 318.928H338.716V320.928H345.698V318.928ZM331.733 318.928H324.75V320.928H331.733V318.928ZM317.767 318.928H310.784V320.928H317.767V318.928ZM303.802 318.928H296.819V320.928H303.802V318.928ZM289.836 318.928H282.853V320.928H289.836V318.928ZM275.871 318.928H268.888V320.928H275.871V318.928ZM261.905 318.928H254.922V320.928H261.905V318.928ZM247.94 318.928H240.957V320.928H247.94V318.928ZM233.974 318.928H226.991V320.928H233.974V318.928ZM220.009 318.928H213.026V320.928H220.009V318.928ZM206.043 318.928H199.06V320.928H206.043V318.928ZM192.078 318.928H185.095V320.928H192.078V318.928ZM178.112 318.928H171.129V320.928H178.112V318.928ZM164.147 318.928H157.164V320.928H164.147V318.928ZM150.181 318.928H143.198V320.928H150.181V318.928ZM136.216 318.928H129.233V320.928H136.216V318.928ZM122.25 318.928H115.267V320.928H122.25V318.928ZM108.285 318.928H101.302V320.928H108.285V318.928ZM94.319 318.928H87.3362V320.928H94.319V318.928ZM80.3535 318.928H73.3707V320.928H80.3535V318.928ZM66.388 318.928H59.4052V320.928H66.388V318.928ZM52.4224 318.928H45.4397V320.928H52.4224V318.928ZM38.4569 318.928H31.4742V320.928H38.4569V318.928ZM24.4914 318.928H21V320.928H24.4914V318.928ZM21 318.928C19.5988 318.928 18.2287 319.066 16.9027 319.328L17.2908 321.29C18.4897 321.053 19.7298 320.928 21 320.928V318.928ZM9.33137 322.466C7.04172 323.999 5.0706 325.97 3.53772 328.26L5.19966 329.372C6.5871 327.3 8.3716 325.516 10.444 324.128L9.33137 322.466ZM0.399693 335.831C0.137375 337.157 0 338.527 0 339.928H2C2 338.658 2.1245 337.418 2.36167 336.219L0.399693 335.831ZM0 339.928V343.429H2V339.928H0ZM0 350.431V357.433H2V350.431H0ZM0 364.435V371.436H2V364.435H0ZM0 378.438V385.44H2V378.438H0ZM0 392.442V399.444H2V392.442H0ZM0 406.445V413.447H2V406.445H0ZM0 420.449V427.451H2V420.449H0ZM0 434.453V441.454H2V434.453H0ZM0 448.456V455.458H2V448.456H0ZM0 462.46V469.462H2V462.46H0ZM0 476.463V479.964H2V476.463H0ZM0 479.964V483.465H2V479.964H0ZM0 490.467V497.469H2V490.467H0ZM0 504.47V511.472H2V504.47H0ZM0 518.474V525.476H2V518.474H0ZM0 532.478V539.479H2V532.478H0ZM0 546.481V553.483H2V546.481H0ZM0 560.485V567.487H2V560.485H0ZM0 574.488V581.49H2V574.488H0ZM0 588.492V595.494H2V588.492H0ZM0 602.495V609.497H2V602.495H0ZM0 616.499V620H2V616.499H0ZM0 620C0 621.401 0.137375 622.771 0.399693 624.097L2.36167 623.709C2.1245 622.51 2 621.27 2 620H0ZM3.53772 631.669C5.0706 633.958 7.04172 635.929 9.33136 637.462L10.444 635.8C8.3716 634.413 6.5871 632.628 5.19966 630.556L3.53772 631.669ZM16.9027 640.6C18.2287 640.863 19.5988 641 21 641V639C19.7298 639 18.4897 638.875 17.2908 638.638L16.9027 640.6ZM21 641H24.4914V639H21V641ZM31.4741 641H38.4569V639H31.4741V641ZM45.4397 641H52.4224V639H45.4397V641ZM59.4052 641H66.3879V639H59.4052V641ZM73.3707 641H80.3534V639H73.3707V641ZM87.3362 641H94.319V639H87.3362V641ZM101.302 641H108.284V639H101.302V641ZM115.267 641H122.25V639H115.267V641ZM129.233 641H136.216V639H129.233V641ZM143.198 641H150.181V639H143.198V641ZM157.164 641H164.147V639H157.164V641ZM171.129 641H178.112V639H171.129V641ZM185.095 641H192.078V639H185.095V641ZM199.06 641H206.043V639H199.06V641ZM213.026 641H220.009V639H213.026V641ZM226.991 641H233.974V639H226.991V641ZM240.957 641H247.94V639H240.957V641ZM254.922 641H261.905V639H254.922V641ZM268.888 641H275.871V639H268.888V641ZM282.853 641H289.836V639H282.853V641ZM296.819 641H303.802V639H296.819V641ZM310.784 641H317.767V639H310.784V641ZM324.75 641H331.733V639H324.75V641ZM338.715 641H345.698V639H338.715V641ZM352.681 641H359.664V639H352.681V641ZM366.647 641H373.629V639H366.647V641ZM380.612 641H387.595V639H380.612V641ZM394.578 641H401.56V639H394.578V641ZM408.543 641H415.526V639H408.543V641ZM422.509 641H426V639H422.509V641ZM426 641H429.542V639H426V641ZM436.625 641H443.708V639H436.625V641ZM450.792 641H457.875V639H450.792V641ZM464.958 641H472.042V639H464.958V641ZM479.125 641H486.208V639H479.125V641ZM493.292 641H500.375V639H493.292V641ZM507.458 641H514.542V639H507.458V641ZM521.625 641H528.708V639H521.625V641ZM535.792 641H542.875V639H535.792V641ZM549.958 641H557.042V639H549.958V641ZM564.125 641H571.208V639H564.125V641ZM578.292 641H585.375V639H578.292V641ZM592.458 641H599.542V639H592.458V641ZM606.625 641H613.708V639H606.625V641ZM620.792 641H627.875V639H620.792V641ZM634.958 641H638.5V639H634.958V641ZM638.5 641H642.054V639H638.5V641ZM649.161 641H656.268V639H649.161V641ZM663.375 641H670.482V639H663.375V641ZM677.589 641H684.696V639H677.589V641ZM691.804 641H698.911V639H691.804V641ZM706.018 641H713.125V639H706.018V641ZM720.232 641H727.339V639H720.232V641ZM734.446 641H738V639H734.446V641Z" fill="#414073"/>
</svg>
